<svg width="22" height="18" viewBox="0 0 22 18" fill="none" xmlns="http://www.w3.org/2000/svg">
<path d="M6.9934 8.20927C8.28056 8.99989 9.39583 10.0464 10.2705 11.2839C10.5378 11.662 10.7823 12.0593 11 12.4679C11.2177 12.0554 11.4622 11.662 11.7295 11.2839C12.6042 10.0464 13.7194 8.99989 15.0066 8.20927C16.7139 7.15892 18.7191 6.55545 20.8542 6.55545H21.2323C21.6562 6.55545 22 6.8992 22 7.32316C22 12.9759 17.4205 17.5554 11.7677 17.5554H11H10.2323C4.57951 17.5554 0 12.9759 0 7.32316C0 6.8992 0.34375 6.55545 0.767708 6.55545H1.14583C3.2809 6.55545 5.28611 7.15892 6.9934 8.20927ZM11.5156 0.658225C12.1153 1.30371 13.8493 3.40059 14.7392 6.94503C13.2878 7.77003 12.0122 8.88531 11 10.2145C9.98785 8.88531 8.71215 7.77385 7.26076 6.94503C8.14688 3.40059 9.8809 1.30371 10.4844 0.658225C10.6181 0.516905 10.8052 0.444336 11 0.444336C11.1948 0.444336 11.3819 0.516905 11.5156 0.658225Z" fill="#909C87"/>
</svg>
