<svg width="188" height="73" viewBox="0 0 188 73" fill="none" xmlns="http://www.w3.org/2000/svg">
<rect width="73" height="73" rx="36.5" fill="white"/>
<path d="M32.4934 35.7093C33.7806 36.4999 34.8958 37.5464 35.7705 38.7839C36.0378 39.162 36.2823 39.5593 36.5 39.9679C36.7177 39.5554 36.9622 39.162 37.2295 38.7839C38.1042 37.5464 39.2194 36.4999 40.5066 35.7093C42.2139 34.6589 44.2191 34.0554 46.3542 34.0554H46.7323C47.1562 34.0554 47.5 34.3992 47.5 34.8232C47.5 40.4759 42.9205 45.0554 37.2677 45.0554H36.5H35.7323C30.0795 45.0554 25.5 40.4759 25.5 34.8232C25.5 34.3992 25.8438 34.0554 26.2677 34.0554H26.6458C28.7809 34.0554 30.7861 34.6589 32.4934 35.7093ZM37.0156 28.1582C37.6153 28.8037 39.3493 30.9006 40.2392 34.445C38.7878 35.27 37.5122 36.3853 36.5 37.7145C35.4878 36.3853 34.2122 35.2738 32.7608 34.445C33.6469 30.9006 35.3809 28.8037 35.9844 28.1582C36.1181 28.0169 36.3052 27.9443 36.5 27.9443C36.6948 27.9443 36.8819 28.0169 37.0156 28.1582Z" fill="#3F3D44"/>
<path d="M93.14 29.36H95.76L90.66 38.2V43.5H88.34V38.22L83.18 29.36H85.86L89.52 35.96L93.14 29.36ZM99.923 32.78C100.763 32.78 101.503 32.9133 102.143 33.18C102.783 33.4467 103.323 33.82 103.763 34.3C104.216 34.7667 104.556 35.3333 104.783 36C105.01 36.6667 105.123 37.4067 105.123 38.22C105.123 39.0467 105.01 39.7933 104.783 40.46C104.57 41.1133 104.243 41.68 103.803 42.16C103.363 42.64 102.816 43.0067 102.163 43.26C101.523 43.5133 100.776 43.64 99.923 43.64C99.083 43.64 98.343 43.5133 97.703 43.26C97.063 42.9933 96.523 42.6267 96.083 42.16C95.6563 41.68 95.3296 41.1067 95.103 40.44C94.8896 39.7733 94.783 39.0333 94.783 38.22C94.783 37.4067 94.8896 36.6667 95.103 36C95.3296 35.3333 95.663 34.7667 96.103 34.3C96.543 33.82 97.083 33.4467 97.723 33.18C98.363 32.9133 99.0963 32.78 99.923 32.78ZM99.923 41.66C100.443 41.66 100.883 41.5733 101.243 41.4C101.616 41.2133 101.916 40.9667 102.143 40.66C102.383 40.3533 102.556 39.9933 102.663 39.58C102.783 39.1667 102.843 38.72 102.843 38.24C102.843 37.76 102.783 37.3133 102.663 36.9C102.556 36.4733 102.383 36.1067 102.143 35.8C101.916 35.4933 101.616 35.2533 101.243 35.08C100.883 34.9067 100.443 34.82 99.923 34.82C99.4163 34.82 98.983 34.9067 98.623 35.08C98.263 35.2533 97.963 35.4933 97.723 35.8C97.483 36.1067 97.303 36.4733 97.183 36.9C97.0763 37.3133 97.023 37.76 97.023 38.24C97.023 38.72 97.0763 39.1667 97.183 39.58C97.303 39.9933 97.4763 40.3533 97.703 40.66C97.943 40.9667 98.243 41.2133 98.603 41.4C98.9763 41.5733 99.4163 41.66 99.923 41.66ZM116.595 41.64C116.568 42.2267 116.555 42.8133 116.555 43.4C116.555 43.9867 116.475 44.58 116.315 45.18C115.995 46.3133 115.415 47.16 114.575 47.72C113.735 48.28 112.688 48.56 111.435 48.56C110.848 48.56 110.288 48.4933 109.755 48.36C109.235 48.2267 108.761 48.02 108.335 47.74C107.921 47.46 107.568 47.1 107.275 46.66C106.981 46.2333 106.788 45.7133 106.695 45.1H109.075C109.181 45.58 109.461 45.94 109.915 46.18C110.381 46.42 110.895 46.54 111.455 46.54C112.095 46.54 112.601 46.42 112.975 46.18C113.361 45.9533 113.655 45.6333 113.855 45.22C114.055 44.82 114.181 44.3533 114.235 43.82C114.288 43.3 114.315 42.7467 114.315 42.16C113.981 42.68 113.548 43.06 113.015 43.3C112.495 43.54 111.841 43.6667 111.055 43.68C110.148 43.6667 109.395 43.52 108.795 43.24C108.208 42.9467 107.721 42.5533 107.335 42.06C106.948 41.5667 106.661 41 106.475 40.36C106.288 39.72 106.195 39.04 106.195 38.32C106.195 37.52 106.295 36.7867 106.495 36.12C106.708 35.4533 107.021 34.8733 107.435 34.38C107.848 33.8867 108.361 33.5 108.975 33.22C109.588 32.94 110.301 32.8 111.115 32.8C111.808 32.8 112.421 32.92 112.955 33.16C113.501 33.3867 113.975 33.74 114.375 34.22L114.555 32.96H116.595V41.64ZM111.355 34.86C110.848 34.86 110.408 34.9467 110.035 35.12C109.675 35.2933 109.375 35.5333 109.135 35.84C108.908 36.1467 108.735 36.5133 108.615 36.94C108.508 37.3533 108.455 37.8 108.455 38.28C108.455 38.76 108.508 39.2067 108.615 39.62C108.735 40.02 108.915 40.3733 109.155 40.68C109.395 40.9867 109.695 41.2333 110.055 41.42C110.428 41.5933 110.868 41.68 111.375 41.68C111.895 41.68 112.335 41.58 112.695 41.38C113.068 41.18 113.375 40.92 113.615 40.6C113.855 40.2667 114.035 39.8933 114.155 39.48C114.275 39.0667 114.335 38.64 114.335 38.2C114.335 37.7467 114.275 37.3133 114.155 36.9C114.035 36.4867 113.848 36.1333 113.595 35.84C113.355 35.5333 113.048 35.2933 112.675 35.12C112.301 34.9467 111.861 34.86 111.355 34.86ZM125.275 42.2C124.928 42.6933 124.468 43.06 123.895 43.3C123.322 43.5267 122.682 43.64 121.975 43.64C121.415 43.64 120.902 43.5733 120.435 43.44C119.982 43.3067 119.582 43.1067 119.235 42.84C118.888 42.56 118.615 42.22 118.415 41.82C118.215 41.4067 118.115 40.94 118.115 40.42C118.115 39.8467 118.228 39.36 118.455 38.96C118.682 38.5467 118.988 38.2133 119.375 37.96C119.775 37.7067 120.242 37.52 120.775 37.4C121.308 37.2667 121.868 37.2 122.455 37.2H125.155C125.155 36.4267 124.982 35.8267 124.635 35.4C124.288 34.9733 123.682 34.7533 122.815 34.74C122.308 34.74 121.868 34.8267 121.495 35C121.135 35.1733 120.895 35.46 120.775 35.86H118.435C118.515 35.3 118.695 34.8267 118.975 34.44C119.268 34.0533 119.615 33.7333 120.015 33.48C120.428 33.2267 120.882 33.0467 121.375 32.94C121.882 32.8333 122.388 32.78 122.895 32.78C123.548 32.78 124.155 32.8667 124.715 33.04C125.275 33.2133 125.762 33.5067 126.175 33.92C126.642 34.4 126.955 34.9733 127.115 35.64C127.275 36.3067 127.355 37.0333 127.355 37.82V43.5H125.375L125.275 42.2ZM125.155 38.82H122.955C122.568 38.82 122.182 38.8533 121.795 38.92C121.408 38.9733 121.075 39.1133 120.795 39.34C120.528 39.5533 120.395 39.8667 120.395 40.28C120.395 40.7867 120.575 41.1733 120.935 41.44C121.308 41.6933 121.762 41.82 122.295 41.82C122.708 41.82 123.088 41.7667 123.435 41.66C123.795 41.5533 124.102 41.38 124.355 41.14C124.608 40.8867 124.802 40.5733 124.935 40.2C125.082 39.8133 125.155 39.3533 125.155 38.82ZM134.543 31.24C134.237 31.24 133.923 31.2667 133.603 31.32C133.283 31.3733 132.99 31.4733 132.723 31.62C132.457 31.7533 132.237 31.9467 132.063 32.2C131.89 32.44 131.803 32.7467 131.803 33.12C131.803 33.68 131.99 34.1067 132.363 34.4C132.737 34.68 133.183 34.8933 133.703 35.04C134.077 35.1467 134.45 35.2467 134.823 35.34C135.21 35.4333 135.563 35.5133 135.883 35.58C136.443 35.7 136.97 35.8467 137.463 36.02C137.97 36.1933 138.41 36.4267 138.783 36.72C139.157 37 139.45 37.36 139.663 37.8C139.89 38.2267 140.003 38.76 140.003 39.4C140.003 40.16 139.863 40.8067 139.583 41.34C139.317 41.8733 138.95 42.3133 138.483 42.66C138.017 43.0067 137.47 43.26 136.843 43.42C136.217 43.58 135.543 43.66 134.823 43.66C134.09 43.66 133.39 43.5867 132.723 43.44C132.07 43.28 131.483 43.0333 130.963 42.7C130.443 42.3533 130.01 41.9133 129.663 41.38C129.317 40.8467 129.097 40.2067 129.003 39.46H131.403C131.51 39.86 131.683 40.1933 131.923 40.46C132.163 40.7267 132.437 40.94 132.743 41.1C133.063 41.26 133.403 41.3733 133.763 41.44C134.123 41.5067 134.477 41.54 134.823 41.54C135.197 41.54 135.557 41.5133 135.903 41.46C136.25 41.3933 136.55 41.2867 136.803 41.14C137.057 40.9933 137.263 40.8 137.423 40.56C137.583 40.32 137.663 40.0067 137.663 39.62C137.663 39.0867 137.523 38.7 137.243 38.46C136.963 38.2067 136.59 38.02 136.123 37.9C135.483 37.7133 134.823 37.5533 134.143 37.42C133.477 37.2733 132.843 37.0867 132.243 36.86C131.843 36.7133 131.477 36.54 131.143 36.34C130.81 36.14 130.517 35.9 130.263 35.62C130.01 35.34 129.81 35.0133 129.663 34.64C129.53 34.2533 129.463 33.8067 129.463 33.3C129.463 32.5267 129.61 31.88 129.903 31.36C130.197 30.8267 130.577 30.4 131.043 30.08C131.523 29.76 132.063 29.5333 132.663 29.4C133.263 29.2533 133.877 29.18 134.503 29.18C135.17 29.18 135.803 29.26 136.403 29.42C137.003 29.5667 137.537 29.8 138.003 30.12C138.47 30.44 138.843 30.8533 139.123 31.36C139.417 31.8667 139.59 32.48 139.643 33.2H137.363C137.31 32.84 137.197 32.54 137.023 32.3C136.863 32.06 136.657 31.8667 136.403 31.72C136.163 31.56 135.883 31.4467 135.563 31.38C135.243 31.3 134.903 31.2533 134.543 31.24ZM144.869 32.96H148.029V34.94H144.869V39.58C144.869 39.8467 144.882 40.1 144.909 40.34C144.949 40.58 145.015 40.8 145.109 41C145.215 41.1867 145.362 41.34 145.549 41.46C145.735 41.58 145.989 41.64 146.309 41.64C146.869 41.64 147.349 41.4733 147.749 41.14L148.509 42.84C148.162 43.1067 147.762 43.3067 147.309 43.44C146.855 43.56 146.409 43.62 145.969 43.62C144.822 43.62 143.975 43.3333 143.429 42.76C142.882 42.1733 142.609 41.26 142.609 40.02V34.94H140.949V32.96H142.609V29.96H144.869V32.96ZM153.971 41.66C154.851 41.66 155.478 41.4133 155.851 40.92C156.224 40.4267 156.411 39.7267 156.411 38.82V32.96H158.671V38.9C158.671 39.78 158.551 40.5267 158.311 41.14C158.071 41.74 157.744 42.2267 157.331 42.6C156.918 42.96 156.424 43.2267 155.851 43.4C155.291 43.56 154.664 43.64 153.971 43.64C152.504 43.64 151.358 43.26 150.531 42.5C149.718 41.74 149.311 40.54 149.311 38.9V32.96H151.571V38.82C151.571 39.7267 151.764 40.4267 152.151 40.92C152.551 41.4 153.158 41.6467 153.971 41.66ZM170.489 43.5H168.349L168.229 42.04C167.842 42.6 167.355 43 166.769 43.24C166.182 43.48 165.522 43.6133 164.789 43.64C163.975 43.6267 163.275 43.48 162.689 43.2C162.102 42.9067 161.615 42.52 161.229 42.04C160.842 41.5467 160.555 40.98 160.369 40.34C160.195 39.7 160.109 39.02 160.109 38.3C160.109 37.5133 160.209 36.7867 160.409 36.12C160.622 35.4533 160.935 34.8733 161.349 34.38C161.762 33.8867 162.269 33.5 162.869 33.22C163.469 32.9267 164.169 32.78 164.969 32.78C165.542 32.78 166.122 32.8733 166.709 33.06C167.295 33.2467 167.795 33.5933 168.209 34.1V29.36H170.489V43.5ZM165.229 34.84C164.722 34.84 164.289 34.9267 163.929 35.1C163.569 35.2733 163.269 35.5133 163.029 35.82C162.802 36.1267 162.635 36.4933 162.529 36.92C162.422 37.3333 162.369 37.78 162.369 38.26C162.369 38.74 162.422 39.1867 162.529 39.6C162.635 40.0133 162.802 40.3733 163.029 40.68C163.269 40.9867 163.569 41.2333 163.929 41.42C164.302 41.5933 164.749 41.68 165.269 41.68C165.762 41.68 166.189 41.5867 166.549 41.4C166.922 41.2 167.229 40.94 167.469 40.62C167.722 40.3 167.909 39.9333 168.029 39.52C168.149 39.1067 168.209 38.68 168.209 38.24C168.209 37.7733 168.149 37.3333 168.029 36.92C167.922 36.5067 167.749 36.1533 167.509 35.86C167.269 35.5533 166.962 35.3133 166.589 35.14C166.215 34.9533 165.762 34.8533 165.229 34.84ZM173.67 28.58C174.083 28.58 174.423 28.7067 174.69 28.96C174.97 29.2133 175.11 29.56 175.11 30C175.11 30.4267 174.97 30.7667 174.69 31.02C174.423 31.2733 174.083 31.4 173.67 31.4C173.23 31.4 172.876 31.2733 172.61 31.02C172.343 30.7667 172.21 30.4267 172.21 30C172.21 29.56 172.343 29.2133 172.61 28.96C172.876 28.7067 173.23 28.58 173.67 28.58ZM172.51 43.5V32.96H174.79V43.5H172.51ZM181.568 32.78C182.408 32.78 183.148 32.9133 183.788 33.18C184.428 33.4467 184.968 33.82 185.408 34.3C185.862 34.7667 186.202 35.3333 186.428 36C186.655 36.6667 186.768 37.4067 186.768 38.22C186.768 39.0467 186.655 39.7933 186.428 40.46C186.215 41.1133 185.888 41.68 185.448 42.16C185.008 42.64 184.462 43.0067 183.808 43.26C183.168 43.5133 182.422 43.64 181.568 43.64C180.728 43.64 179.988 43.5133 179.348 43.26C178.708 42.9933 178.168 42.6267 177.728 42.16C177.302 41.68 176.975 41.1067 176.748 40.44C176.535 39.7733 176.428 39.0333 176.428 38.22C176.428 37.4067 176.535 36.6667 176.748 36C176.975 35.3333 177.308 34.7667 177.748 34.3C178.188 33.82 178.728 33.4467 179.368 33.18C180.008 32.9133 180.742 32.78 181.568 32.78ZM181.568 41.66C182.088 41.66 182.528 41.5733 182.888 41.4C183.262 41.2133 183.562 40.9667 183.788 40.66C184.028 40.3533 184.202 39.9933 184.308 39.58C184.428 39.1667 184.488 38.72 184.488 38.24C184.488 37.76 184.428 37.3133 184.308 36.9C184.202 36.4733 184.028 36.1067 183.788 35.8C183.562 35.4933 183.262 35.2533 182.888 35.08C182.528 34.9067 182.088 34.82 181.568 34.82C181.062 34.82 180.628 34.9067 180.268 35.08C179.908 35.2533 179.608 35.4933 179.368 35.8C179.128 36.1067 178.948 36.4733 178.828 36.9C178.722 37.3133 178.668 37.76 178.668 38.24C178.668 38.72 178.722 39.1667 178.828 39.58C178.948 39.9933 179.122 40.3533 179.348 40.66C179.588 40.9667 179.888 41.2133 180.248 41.4C180.622 41.5733 181.062 41.66 181.568 41.66Z" fill="white"/>
</svg>
