<svg width="60" height="60" viewBox="0 0 60 60" fill="none" xmlns="http://www.w3.org/2000/svg">
<rect width="60" height="60" rx="30" fill="white"/>
<path d="M25.9934 29.2093C27.2806 29.9999 28.3958 31.0464 29.2705 32.2839C29.5378 32.662 29.7823 33.0593 30 33.4679C30.2177 33.0554 30.4622 32.662 30.7295 32.2839C31.6042 31.0464 32.7194 29.9999 34.0066 29.2093C35.7139 28.1589 37.7191 27.5554 39.8542 27.5554H40.2323C40.6562 27.5554 41 27.8992 41 28.3232C41 33.9759 36.4205 38.5554 30.7677 38.5554H30H29.2323C23.5795 38.5554 19 33.9759 19 28.3232C19 27.8992 19.3438 27.5554 19.7677 27.5554H20.1458C22.2809 27.5554 24.2861 28.1589 25.9934 29.2093ZM30.5156 21.6582C31.1153 22.3037 32.8493 24.4006 33.7392 27.945C32.2878 28.77 31.0122 29.8853 30 31.2145C28.9878 29.8853 27.7122 28.7738 26.2608 27.945C27.1469 24.4006 28.8809 22.3037 29.4844 21.6582C29.6181 21.5169 29.8052 21.4443 30 21.4443C30.1948 21.4443 30.3819 21.5169 30.5156 21.6582Z" fill="#3F3D44"/>
</svg>
